# xmcd CD database file
#
# Track frame offsets:
#	150
#	13787
#	26550
#	40187
#	50400
#	63512
#	75837
#	86812
#	99012
#	111150
#	122100
#	135362
#	148037
#	160562
#	175825
#	187087
#	200337
#	212737
#	224162
#	236475
#	251425
#	264962
#	278812
#	292212
#	304162
#	319325
#
# Disc length: 4414 seconds
#
# Revision: 5
# Processed by: cddbd v1.5.2PL0 Copyright (c) Steve Scherf et al.
# Submitted via: CDex 1.99
#
DISCID=78113c1a
DTITLE=Various Artist - The Chess Story 1947-1975 CD 2: 1950-1951
DYEAR=1999
DGENRE=Soul/R&B
TTITLE0=Muddy Waters - Rollin' Stone
TTITLE1=Jimmy Rogers - That's Alright
TTITLE2=The Dozier Boys - You Got To Get It
TTITLE3=Doc Pomus - Send For The Doctor
TTITLE4=Muddy Waters - Louisiana Blues
TTITLE5=Jimmy Rogers - Goin' Away Baby
TTITLE6=Shoeshine Johnny (Johnny Shines) - So Glad I Found You
TTITLE7=Memphis Slim - Mother Earth
TTITLE8=Muddy Waters - Long Distance Call
TTITLE9=Sax Mallard - Slow Caboose
TTITLE10=Jimmy Rogers - The World's In A Tangle
TTITLE11=Jackie Brenston - Rocket 88
TTITLE12=John Lee Hooker - Leave My Wife Alone
TTITLE13=Muddy Waters - Honey Bee
TTITLE14=Jackie Brenston And His Delta Cats - My Real Gone Rocket
TTITLE15=Howlin' Wolf - Moanin' At Midnight
TTITLE16=Harmonica Frank - Howlin' Tomcat
TTITLE17=Billy Love [Issued As Jackie Brenston] - Juiced
TTITLE18=Howlin' Wolf - How Many More Years
TTITLE19=Muddy Waters - Still A Fool
TTITLE20=John Godfrey Trio - Hey Little Girl
TTITLE21=Rosco Gordon - Booted
TTITLE22=Muddy Waters - She Moves Me
TTITLE23=Rufus Thomas - No More Doggin' Around
TTITLE24=Floyd Jones - Dark Road
TTITLE25=Dr. Isaiah Ross - Dr. Ross' Boogie
EXTD=YEAR: 1999
EXTT0=
EXTT1=
EXTT2=
EXTT3=
EXTT4=
EXTT5=
EXTT6=
EXTT7=
EXTT8=
EXTT9=
EXTT10=
EXTT11=
EXTT12=
EXTT13=
EXTT14=
EXTT15=
EXTT16=
EXTT17=
EXTT18=
EXTT19=
EXTT20=
EXTT21=
EXTT22=
EXTT23=
EXTT24=
EXTT25=
PLAYORDER=
